<svg width="474" height="24" viewBox="0 0 474 24" fill="none" xmlns="http://www.w3.org/2000/svg">
<g clip-path="url(#clip0_189_23)">
<path d="M468.31 7.77988C467.18 7.46988 466.18 7.30988 465.09 8.02988C463.2 8.60988 461.68 9.29988 459.71 9.05988C457.91 9.51988 456.1 11.1199 454.27 9.49988C451.54 7.34988 448.88 8.05988 446.17 7.75988C442.57 6.46988 438.93 7.14988 435.32 7.77988C433.3 7.76988 432.21 8.40988 430.41 8.65988C429.64 9.44988 429.2 10.1399 428.4 8.91988C426.16 9.28988 423.55 11.1499 421.37 8.94988C420.36 9.12988 419.56 6.50988 418.55 7.86988C417.62 8.91988 416.64 7.83988 415.7 7.76988C414.22 9.61988 413.87 7.71988 412.52 6.88988C411.53 4.56988 410.5 7.41988 409.47 6.60988C406.32 7.45988 403.17 6.12988 400.02 6.63988C398.07 7.39988 395.96 3.49988 394.04 6.58988C391.84 5.27988 389.99 8.04988 387.88 8.79988C386.9 10.8399 386.02 6.74988 385.05 9.76988C382.07 11.9299 379.18 9.45988 376.03 10.6199C374.39 10.8199 372.83 12.3699 371.28 10.0799C370.22 12.5199 369.38 7.46988 368.37 8.30988C366.59 4.83988 364.71 5.73988 362.77 7.20988C360.61 6.80988 358.51 7.48988 356.4 7.76988C354.29 8.21988 352.18 7.03988 350 8.36988C348.17 8.11988 346.85 7.55988 345.26 8.90988C342.95 8.76988 340.67 10.1699 338.43 9.03988C336.54 10.4399 334.34 5.09988 332.41 8.90988C329.9 10.4299 327.4 7.34988 324.9 8.90988C322.4 5.51988 319.89 13.4699 317.39 8.90988C314.78 9.84988 312.16 7.17988 309.55 8.91988C307.36 5.63988 305.95 6.90988 303.88 7.28988C302.21 6.51988 300.45 6.63988 298.77 7.11988C297.8 6.82988 297.09 8.26988 296.2 6.03988C295.14 2.79988 294.34 4.06988 293.26 5.39988C292.08 2.52988 291.31 4.42988 290.04 4.32988C287.73 5.41988 284.64 7.46988 282.42 4.28988C281.37 3.58988 280.64 3.74988 279.54 2.72988C278.23 1.76988 277.28 2.92988 276.07 3.25988C274.34 3.77988 272.69 5.96988 270.82 4.98988C269.73 7.25988 268.77 4.09988 267.71 4.49988C266.61 1.97988 265 2.52988 263.89 4.48988C263.24 4.37988 262.76 5.29988 262.01 5.39988C260.7 5.15988 259.25 6.80988 257.91 5.50988C256.46 3.75988 255.08 6.58988 253.73 5.12988C252.08 3.54988 250.22 2.25988 248.31 3.07988C246.4 4.66988 244.43 1.00988 242.55 2.80988C240.29 3.14988 238.04 4.00988 235.75 4.31988C233.47 4.35988 231.15 4.33988 228.78 4.94988C226.76 6.00988 224.73 4.65988 222.78 4.40988C221.31 3.74988 220.47 3.17988 218.99 2.78988C216.98 3.80988 215.13 2.58988 213.34 3.54988C212.15 4.96988 211 4.88988 209.69 5.44988C208.76 5.45988 207.69 5.51988 206.74 5.49988C204.11 4.78988 200.73 6.20988 198.43 6.06988C196.74 7.69988 195.08 6.53988 193.16 6.64988C191.67 6.18988 190.93 8.28988 189.7 6.22988C189.38 6.31988 189.13 4.87988 188.77 5.61988C188.02 4.12988 186.82 5.12988 186.05 5.47988C184.85 5.19988 185.24 5.81988 184.27 6.35988C182.7 8.00988 180.95 6.01988 179.12 7.20988C177.03 8.23988 175.03 6.54988 173.05 7.26988C171.07 7.46988 169.1 9.15988 167.08 8.20988C164.59 9.64988 162.29 9.93988 159.68 9.49988C157.81 9.84988 155.45 9.14988 153.62 9.43988C153.08 9.20988 152.75 10.3799 152.22 10.0499C150.04 11.1699 147.69 11.4899 145.42 10.6299C143.67 10.0199 141.91 10.2199 140.16 10.6199C137.92 9.36988 135.36 9.56988 133.19 10.7299C131.2 13.4599 129.75 14.0899 127.59 12.3599C125.02 12.5999 121.78 11.9199 119.23 12.3599C118.16 12.5899 118.22 12.4199 117.34 11.2899C116.79 12.1299 115.76 10.0799 115.18 10.7499C113.73 10.0499 112.43 11.8299 111.09 9.06988C110.35 8.23988 109.72 9.37988 108.91 7.87988C107.71 8.25988 106.35 9.96988 105.12 7.76988C103.06 6.25988 101.31 8.23988 99.3 8.35988C96.21 9.54988 93.21 8.16988 90.17 7.91988C88.58 5.81988 88.24 6.38988 86.85 6.61988C85.86 4.51988 85.9 6.47988 84.91 6.12988C83.43 6.38988 81.91 3.05988 80.45 4.22988C77.61 2.90988 73.9 0.539883 70.84 3.80988C69.3 3.61988 66.39 3.71988 65.1 3.70988C64.69 3.10988 64.49 2.51988 64.11 2.52988C63.68 0.359883 63.01 1.09988 62.5 1.66988C60.59 -0.550117 58.7 1.30988 56.65 0.969883C55.16 1.31988 54.14 2.74988 52.72 0.529883C50.78 -0.140117 48.65 0.509883 46.66 0.399883C46.03 -0.310117 45.34 0.029883 44.74 0.499883C44.06 0.179883 43.86 1.08988 43.08 1.57988C42.06 2.50988 40.63 1.38988 39.55 1.53988C37.39 0.849883 35.23 0.169883 33.07 1.53988C30.38 2.12988 28.4 2.35988 25.93 3.38988C23.48 3.71988 21.24 4.82988 18.58 4.36988C17.2 4.64988 15.04 3.47988 13.72 4.30988C12.82 6.48988 12.65 6.02988 11.9 5.68988C11.4 5.36988 10.89 6.51988 10.36 6.19988C7.8 5.73988 5.61 8.16988 2.83 7.21988C2.83 7.49988 0 15.4499 0 15.1499C0.99 16.5199 1.52 15.8599 2.41 16.1899C3.24 15.9099 4.11 15.7699 4.96 16.2799C6.38 14.9499 8.08 17.3499 9.48 16.2399C11 16.2599 12.21 18.3799 13.73 17.8599C15.58 18.2999 17.46 17.1599 19.13 17.1699C21.35 16.2899 23.28 13.9399 25.68 12.2699C26.18 12.8699 27.27 11.3399 27.75 12.3099C29.32 12.0799 31.41 9.91988 32.88 12.5599C34.2 12.5499 35.36 12.0299 36.88 13.2199C37.99 10.9999 37.35 11.8799 38.8 11.7199C39.95 12.5399 41.38 9.20988 42.58 11.0799C44.51 10.7399 45.13 9.78988 46.73 13.2499C49.16 13.5599 53.62 13.0099 56.12 13.4399C58.4 13.8199 61.02 10.3899 63.33 13.4099C64.99 13.0699 66.8 15.1399 68.31 14.5799C70.02 14.5799 71.84 15.3299 73.66 16.1499C76.52 15.7799 79.92 14.3699 82.84 16.2799C84.75 16.6399 86.7 16.1299 88.61 16.2699C90.62 14.5899 91.88 18.3399 93.91 18.0299C95.76 18.2799 98.02 18.9899 99.82 17.9599C100.42 19.0699 100.85 19.0099 101.44 18.5899C102.26 18.4799 103.38 18.2699 104.22 18.5599C104.77 17.4899 105.49 18.2499 106.02 18.4799C106.72 18.4599 106.98 18.0599 107.66 16.9499C108.55 17.0499 110.49 18.1999 111.38 16.8599C112.88 16.6999 114.38 17.6299 115.74 17.4099C117.74 18.8299 119.16 19.6999 121.62 19.7299C123.43 17.6199 125.29 19.1599 127.11 19.6999C128.7 20.2499 130.39 19.8499 131.82 19.3699C132.3 19.2499 132.69 18.1499 133.2 18.5599C134.22 19.1699 135.39 18.5899 136.48 17.9899C138.21 17.5499 139.97 19.0399 141.7 17.9999C142.88 18.6399 145.22 20.1099 146.29 17.8999C147.04 14.9399 147.31 15.9499 148.04 15.8599C149.73 14.6999 152.8 16.2899 154.77 15.1699C155.81 15.8299 155.63 14.8699 156.81 15.4999C158.36 14.5399 159.54 19.9399 161.16 18.0699C163.01 17.6499 164.87 19.7199 166.78 18.5699C168.99 18.8199 171.2 19.5299 173.41 18.5699C173.97 18.8499 174.72 19.3899 175.27 18.4999C176.97 19.4699 177.37 20.1699 178.84 20.7699C180.12 22.7899 181.62 21.4499 182.95 20.8099C184.79 18.4599 186.44 21.6099 188.33 21.4099C190.22 20.0099 192.11 21.3499 194.01 21.4099C195.25 20.9299 196.68 21.1499 197.9 21.3799C198.95 20.4299 199.86 23.5399 200.91 21.9999C203.63 22.6399 206.56 21.7499 209.04 20.7299C210.53 20.6299 211.72 18.9899 213.26 18.6099C214.07 19.1999 214.57 16.3299 215.32 17.6999C216.41 16.8399 217.52 18.1299 218.71 17.4499C220.45 19.7399 222.32 16.6299 224.05 17.4899C226.58 18.4199 228.38 16.5699 230.63 14.2799C232.01 14.1799 234 15.2099 235.49 14.0099C237.4 15.2399 238.94 14.0499 240.77 15.0799C241.36 14.5299 241.94 17.9999 242.52 15.2999C243.09 15.4299 243.67 17.0099 244.24 16.2199C247.41 15.1199 250.74 20.1999 254.1 18.0399C256.24 17.4699 258.4 18.7399 260.54 17.9699C262.69 16.6899 264.82 17.2699 266.9 18.4599C268.7 19.9799 270.47 21.1799 272.16 17.8899C273.9 15.0399 274.76 16.4399 276.68 16.8799C280.08 16.7199 283.47 16.3799 286.87 16.8799C288.82 17.5799 290.78 17.1499 292.73 16.8799C294.57 16.5299 295.94 16.0899 297.72 17.4599C301.31 18.3499 304.7 16.3599 307.9 18.5699C309.26 19.5299 310.74 22.2499 312.14 20.2499C314.39 20.2099 316.54 21.8699 319.04 22.4699C321.89 23.4999 324.01 20.6899 326.77 21.5099C330.4 22.4399 333.95 18.9999 337.68 20.8499C339.95 19.8699 343.13 21.7999 345.28 20.7599C346.99 20.5899 347.77 19.7999 349.73 18.5699C351.45 17.1199 353.36 20.9699 355.07 18.5199C356.9 18.9599 358.55 18.9599 360.38 19.7699C361.63 22.1399 362.99 18.6199 364.26 19.7099C366.38 19.8699 368.51 18.0499 370.63 19.7099C372.75 19.6799 374.88 19.5499 377 19.7099C379.29 16.6999 381.63 20.9399 383.83 20.4099C385.8 22.6799 387.08 22.4599 389.3 22.5699C391.83 24.1699 393.48 21.9099 395.85 21.2399C397.92 21.3499 399.99 21.0599 402.07 20.7199C404.36 20.6399 406.39 20.3399 408.48 19.1499C410.78 18.8299 412.48 16.0599 415.13 18.0199C418.51 19.2499 421.89 19.7399 425.27 18.0199C427.23 19.1699 428.6 17.6999 430.56 17.4599C433.2 16.0299 435.65 18.5499 438.24 17.8999C440.86 18.2699 443.66 19.6799 446.31 18.5799C448.27 18.8099 449.7 19.0099 451.5 20.5299C453.64 22.0999 456.4 19.3599 458.72 20.8599C460.67 21.8799 462.02 19.8799 463.82 19.7399C465.52 19.8099 469.6 20.0199 470.54 17.4599C470.54 15.3799 473.37 5.09988 473.37 6.68988C472.44 9.25988 469.64 7.59988 468.31 7.77988Z" fill="white"/>
</g>
<defs>
<clipPath id="clip0_189_23">
<rect width="473.39" height="23.11" fill="white"/>
</clipPath>
</defs>
</svg>
