<svg width="458" height="28" viewBox="0 0 458 28" fill="none" xmlns="http://www.w3.org/2000/svg">
<g clip-path="url(#clip0_189_20)">
<path d="M452.98 8.70003C452.74 11.11 446.92 10.43 445.55 10.4C442.08 9.70003 438.18 11.07 434.81 9.99003C432.32 9.12003 430.13 8.04003 427.53 8.14003C425.36 10.18 423.02 7.74003 420.93 8.47003C419.49 8.86003 418.12 10.6 416.65 9.86003C416.15 9.98003 415.99 9.92003 415.55 10.17C415.26 10.09 415.12 9.88003 414.75 10.95C413.78 10.03 411.48 11.01 410.48 10.99C409.06 11.34 407.95 11.04 406.7 10.13C405.46 9.38003 404.91 7.88003 403.35 9.27003C402.32 8.23003 398.37 8.35003 397.35 9.49003C396.78 11.05 397.11 10.54 396.85 11.03C396.53 11.5 395.84 12.43 395.12 12.36C393.13 13.69 389.7 13.9 387.47 12.68C384.49 13.73 380.9 14.52 377.99 12.85C376.99 12.9 376.94 12.29 375.89 10.63C375.1 8.74003 374.15 10.76 373.3 10.42C371.86 10.6 369.3 10.35 368.02 10.19C366.75 9.01003 366.68 9.33003 365.14 8.70003C361.88 8.12003 358.57 8.89003 355.47 8.27003C353.43 7.70003 350.95 8.75003 348.84 8.14003C346.18 4.77003 342.27 9.98003 340.25 7.00003C339.52 6.04003 339.11 4.41003 338.07 5.37003C337.47 5.60003 336.87 4.72003 336.26 4.43003C333.96 4.17003 332.67 6.37003 330.48 5.33003C329.43 7.30003 328.36 5.83003 327.32 5.30003C325.92 4.86003 324.03 5.17003 322.69 5.20003C321.65 4.09003 321.06 4.69003 319.89 3.71003C318.97 3.14003 318.05 4.20003 317.12 3.59003C314.48 3.40003 311.74 5.73003 309.06 4.19003C306.87 3.14003 304.52 2.32003 302.23 2.53003C302.55 5.45003 294.08 2.06003 292.29 4.17003C289.54 5.61003 286.86 2.88003 284.16 2.89003C281.85 0.220028 279.63 3.49003 277.26 2.46003C275.56 1.95003 274.44 1.97003 272.92 3.03003C272.06 3.86003 272.53 3.68003 271.56 3.61003C271.29 6.26003 270.78 3.93003 270.47 3.60003C269 4.87003 267.3 2.94003 265.87 3.64003C264.82 2.81003 264 3.41003 263.11 2.17003C261.49 2.63003 259.83 1.09003 257.93 0.760028C255.24 0.820028 252.57 1.49003 250.03 0.300028C247.91 -0.739972 245.57 1.20003 243.51 1.32003C242.38 2.40003 242.12 1.79003 241.17 2.13003C240.64 1.96003 240.22 3.64003 239.62 2.49003C238.19 1.89003 236.73 1.64003 235.29 2.46003C233.91 4.17003 232.44 1.69003 231.07 2.40003C229.49 -0.569972 228.19 3.44003 226.65 3.62003C223.83 2.99003 220.78 2.54003 217.94 3.59003C216.79 3.24003 215.4 3.72003 214.29 3.71003C213.09 3.74003 212.95 4.93003 212.03 5.64003C210.13 7.37003 206.77 4.35003 204.63 5.84003C203.55 5.11003 202.95 7.35003 201.77 6.42003C199.76 7.12003 199.95 6.71003 198.45 7.90003C196.79 9.82003 193.46 8.30003 191.76 7.71003C190.42 5.89003 189.79 6.86003 189.18 6.31003C188.55 6.07003 188.5 4.98003 187.32 3.84003C186.33 3.63003 185.52 1.31003 184.18 1.88003C182.66 0.800028 181.67 2.44003 180.53 2.42003C178.71 4.48003 175.95 2.74003 174.02 2.47003C171.37 1.90003 168.72 2.83003 166.07 2.47003C164.19 3.69003 162.31 2.55003 160.44 2.47003C159.39 2.62003 157.46 1.93003 157.49 3.51003C155.57 4.35003 153.34 3.90003 151.38 3.69003C151.23 4.88003 151.55 6.03003 151.31 6.34003C149.47 5.44003 147.73 8.31003 145.82 7.60003C144.48 7.89003 143.13 6.07003 141.79 7.57003C138.73 8.05003 135.66 6.67003 132.6 7.57003C131.39 7.76003 130.61 7.82003 129.57 8.19003C127.99 8.84003 127 10.57 125.15 9.28003C123.46 9.69003 121.79 8.70003 120.15 8.99003C118.16 8.97003 118.82 9.83003 117.42 9.89003C116.42 11.25 114.39 9.20003 113.31 9.85003C111.45 7.86003 109.56 11.05 107.7 9.86003C106.1 9.24003 105.99 9.37003 104.78 8.17003C103.56 8.99003 101.83 7.58003 100.36 7.01003C98.75 5.90003 97.46 7.39003 95.85 6.32003C94.77 6.66003 94.35 4.82003 93.29 6.25003C92.53 6.13003 92.23 6.69003 91.58 7.77003C90.87 9.99003 90.62 8.83003 89.71 8.15003C88.65 8.66003 87.58 7.60003 86.52 8.14003C85.32 6.98003 84.12 9.75003 82.93 8.14003C81.78 8.98003 79.97 8.05003 78.93 8.08003C77.94 7.56003 77.3 7.88003 76.25 9.42003C75.01 10.09 74.46 11.29 73.13 9.43003C70.5 8.13003 68.9 7.46003 65.78 6.43003C63.67 7.11003 61.56 5.48003 59.45 6.43003C57.62 6.94003 56.21 4.38003 54.45 5.85003C52.98 5.68003 51.5 6.19003 50.03 5.86003C48.63 6.11003 47.21 7.11003 45.81 5.87003C44.87 5.90003 43.35 6.49003 42.55 5.33003C40.31 3.04003 38.87 2.80003 36.34 2.45003C35.08 2.31003 33.8 1.19003 32.57 2.32003C31.57 3.43003 30.56 1.87003 29.54 1.28003C27.1 0.430028 24.17 0.940028 22.71 3.00003C20.85 5.51003 18.32 5.38003 15.31 5.28003C13.88 4.30003 12.73 5.89003 11.36 5.86003C11.03 4.80003 10.48 5.33003 10.19 5.80003C9.62 5.91003 9.72 6.02003 9.3 6.64003C7.08 8.30003 4.79 8.62003 2.83 5.86003C2.83 5.92003 2.12 9.54003 1.41 11.81C0.71 14.62 0 17.51 0 17.77C1.7 16.67 3.39 14.51 5.19 14.3C6.2 14.73 8.48 13.29 9.48 14.33C11.07 14.64 12.07 16.4 13.54 15.17C15.08 15.99 16.64 16.54 18.14 15.1C19.77 14.43 20.88 10.67 22.66 12.64C25.28 12.59 26.91 12.3 28.99 10.48C31.14 8.63003 34.48 10.55 36.91 11.74C39.14 12.03 41.49 13.5 43.83 12.01C46.16 12.61 48.47 12.41 50.61 12.88C53.1 15.09 55.53 16.1 58.36 15.38C60.95 14.87 63.23 13.73 65.89 15.51C67.12 13.85 68.05 15.43 69.28 16.03C71.98 16.51 74.44 17.01 77.02 17.81C79.08 18.44 80.23 21.36 82.19 21.09C83.65 23.85 85.31 19.89 86.8 21.12C88.34 20.33 89.51 21.43 91.12 22.37C92.48 20.88 93.96 22.94 95.34 22.31C98.01 22.51 101.96 23.13 104.32 21.63C105.07 22.39 105.52 22.28 106.39 20.13C107.45 20.14 108.82 21.47 109.92 20.06C111.3 20.06 111.85 18.03 113.16 18.89C113.79 17.86 114.37 18.8 115 18.81C115.28 18.77 115.84 19.69 116.29 17.62C117.4 17.55 118.92 18.63 120.1 16.79C121.09 16.07 121.98 14.7 123.01 16.24C124.23 17.47 124.56 19.17 126.03 18.34C126.94 18.1 127.5 17.6 128.15 16.6C129.6 14.36 131.73 16.38 133.46 16.08C136.92 15.3 140.4 14.26 143.86 16.08C144.74 15.74 145.42 16.16 146.27 15.86C147.54 14.37 147.47 15.16 148.88 14.31C151.26 14.45 153.76 16.26 156.18 14.96C157.52 12.91 158.64 14.79 160.01 14.36C160.83 15.19 161.87 15.1 162.62 14.18C163.56 13.24 163.15 12.59 163.67 11.61C164.57 10.56 167.75 10.32 169.4 10.97C170.88 13.08 172.36 12.18 173.84 10.96C176 10.08 177.6 10.65 179.4 12.21C180.47 15.38 180.97 13.05 182.11 13.82C183.17 13.19 183.87 15.46 184.82 15.09C186.46 16.45 188.55 15.01 190.73 16.8C192.91 17.36 195.17 18.15 197.14 16.64C199.6 17.12 202.11 16.28 204.46 16.07C205.65 14.45 205.59 14.9 206.89 15.53C208.15 15.25 208.69 15.06 209.73 14.46C211.47 16.44 213.68 15.87 215.51 14.36C217.27 15.03 219.05 14.44 220.81 14.33C223.17 13.53 225.74 15.19 228.29 15.44C230.84 14.13 233.39 13.49 235.7 14.37C236.42 13.15 236.91 13.89 237.54 12.78C237.68 13.76 238.69 11.81 238.76 11.62C240.2 10.38 241.59 12.09 242.92 12.04C244.72 12.6 246.19 10.96 247.8 13.23C249 13.76 250.18 14.53 251.68 15.96C253.33 16.18 254.75 15.96 256.23 15.33C257.73 15.2 258.48 15.25 259.69 16.43C260.4 17.87 260.4 18.4 261.43 17.03C262.49 17.97 263.57 13.86 264.62 14.88C266.06 13.99 267.8 14.82 269.37 14.49C271.5 15.02 273.7 17.36 275.92 15.03C278.14 14.45 280.37 15.73 282.54 14.94C283.42 16.55 285.3 13.49 286.03 14.88C286.76 14.22 286.72 14.21 287.48 12.6C288.24 9.93003 289.78 9.97003 290.73 12.06C292.04 12.09 292.86 12.07 294.25 12.67C295.88 14.85 297.56 12.79 299.18 12.73C300.85 12.9 301.88 12.6 303.44 11.63C305.75 10.6 307.08 12.17 308.83 13.41C309.87 14.94 310.02 14.12 311.22 14.63C312.01 15.91 312.67 14.69 313.49 15.97C314.88 15.44 316.69 17.5 318.15 16.07C319.59 16.6 320.46 15.67 321.74 15.45C322.65 15.76 323.14 14.21 323.84 16.2C324.98 18.23 324.99 14.72 326.36 17.23C328.08 15.34 329.89 17.23 331.62 17.21C332.49 18.29 333.49 16.79 334.35 17.23C335.72 17.43 335.08 16.87 336.15 16.2C337.44 14.77 338.69 13.47 340.35 15.51C341.58 14.27 342.81 15.04 344.04 15.51C345 15.79 346.01 15.38 346.95 15.61C347.84 14.87 348.7 16.31 349.65 16.82C350.59 18.22 351.6 16.56 352.54 17.42C354.22 16.85 355.47 19.25 357.15 19.94C358.82 22.52 360.66 20.04 362.37 20.13C363.72 21.3 364.7 19.85 366.06 21.64C366.9 18.89 367.73 22.25 368.53 22.01C369.05 21.88 369.61 24.34 370.2 22.94C370.71 23.77 371.32 21.38 371.85 22.85C373.5 22.64 374.03 22.8 375.28 24.6C377.93 26.21 381.03 28.35 384.31 26.28C386.01 26.66 387.72 26.14 389.42 26.28C391.75 27.29 394.07 25.94 396.4 26.26C398.73 27.15 401.05 26.28 403.38 26.27C404.76 25.86 405.7 25.24 406.95 25.69C407.9 25.24 408.98 26.61 409.94 25.74C411.71 26.32 414.17 26.8 415.65 24.12C416.3 23.16 416.47 21.98 417.04 22.78C417.4 23.41 417.76 22.82 418.11 21.73C418.71 20.3 418.98 19.43 418.9 19.98C420.79 18.1 426.03 19.83 428.94 18.77C431.04 18.41 433.12 17.72 435.39 18.37C436.65 19.24 437.3 17.57 438.45 17.29C440.09 16.95 442.1 18.08 443.77 17.19C446.07 16.72 448.34 18.44 450.61 17.47C452.88 17.39 455.15 16.9 457.46 17.75C457.51 17.28 452.98 9.10003 452.98 8.70003Z" fill="white"/>
</g>
<defs>
<clipPath id="clip0_189_20">
<rect width="457.51" height="27.12" fill="white"/>
</clipPath>
</defs>
</svg>
