<svg width="220" height="220" viewBox="0 0 220 220" fill="none" xmlns="http://www.w3.org/2000/svg">
<path d="M216 105.461L171.825 92.6172C161.043 89.4905 151.226 83.6907 143.284 75.7561C135.343 67.8216 129.534 58.0094 126.397 47.2302L113.554 3.0472C113.301 2.16897 112.77 1.39669 112.04 0.846985C111.31 0.297279 110.421 0 109.507 0C108.594 0 107.705 0.297279 106.975 0.846985C106.245 1.39669 105.713 2.16897 105.461 3.0472L92.6173 47.2302C86.6623 67.708 71.0991 83.6479 51.2193 90.8807C49.8431 91.3804 48.639 92.2077 47.222 92.6172L3.04728 105.461C2.16904 105.713 1.39672 106.245 0.84701 106.975C0.297304 107.705 0 108.594 0 109.507C0 110.421 0.297304 111.31 0.84701 112.04C1.39672 112.77 2.16904 113.301 3.04728 113.554L47.222 126.397C48.639 126.815 49.8431 127.634 51.2193 128.134C71.0991 135.367 86.6623 151.307 92.6173 171.793L105.461 215.967C105.713 216.846 106.245 217.618 106.975 218.168C107.705 218.717 108.594 219.015 109.507 219.015C110.421 219.015 111.31 218.717 112.04 218.168C112.77 217.618 113.301 216.846 113.554 215.967L126.397 171.793C129.53 161.016 135.334 151.205 143.269 143.269C151.205 135.334 161.016 129.53 171.793 126.397L215.967 113.554C216.847 113.305 217.621 112.777 218.174 112.049C218.727 111.321 219.027 110.433 219.031 109.52C219.035 108.606 218.741 107.716 218.194 106.983C217.648 106.251 216.877 105.717 216 105.461Z" fill="#7d12ff"/>
</svg>
